<svg viewBox="0 0 48 48" fill="none" xmlns="http://www.w3.org/2000/svg">
<g clip-path="url(#clip0_3140_11848)">
<path d="M2.96907 2.96907H10.4907V0H0V10.4907H2.96907V2.96907Z" fill="url(#paint0_linear_3140_11848)"/>
<path d="M37.5078 0V2.96907H45.0295V10.4907H47.9985V0H37.5078Z" fill="url(#paint1_linear_3140_11848)"/>
<path d="M45.0295 45.0295H37.5078V47.9985H47.9985V37.5078H45.0295V45.0295Z" fill="url(#paint2_linear_3140_11848)"/>
<path d="M2.96907 37.5078H0V47.9985H10.4907V45.0295H2.96907V37.5078Z" fill="url(#paint3_linear_3140_11848)"/>
<path d="M27.1581 17.32C29.7502 17.32 31.8591 15.2111 31.8591 12.619C31.8591 10.0269 29.7503 7.91797 27.1581 7.91797C24.5659 7.91797 22.457 10.0269 22.457 12.619C22.457 15.2111 24.566 17.32 27.1581 17.32Z" fill="url(#paint4_linear_3140_11848)"/>
<path d="M7.91797 40.0827H40.0829V30.5005L34.2792 24.3767L27.2408 28.4708L17.4426 21.4688L7.91797 31.5184V40.0827Z" fill="url(#paint5_linear_3140_11848)"/>
</g>
<defs>
<linearGradient id="paint0_linear_3140_11848" x1="1.05276" y1="1.20277" x2="0.0532577" y2="4.93934" gradientUnits="userSpaceOnUse">
<stop stop-color="#F0B867"/>
<stop offset="1" stop-color="#C2C368"/>
</linearGradient>
<linearGradient id="paint1_linear_3140_11848" x1="38.5606" y1="1.20277" x2="37.5611" y2="4.93934" gradientUnits="userSpaceOnUse">
<stop stop-color="#F0B867"/>
<stop offset="1" stop-color="#C2C368"/>
</linearGradient>
<linearGradient id="paint2_linear_3140_11848" x1="38.5606" y1="38.7106" x2="37.5611" y2="42.4472" gradientUnits="userSpaceOnUse">
<stop stop-color="#F0B867"/>
<stop offset="1" stop-color="#C2C368"/>
</linearGradient>
<linearGradient id="paint3_linear_3140_11848" x1="1.05276" y1="38.7106" x2="0.0532577" y2="42.4472" gradientUnits="userSpaceOnUse">
<stop stop-color="#F0B867"/>
<stop offset="1" stop-color="#C2C368"/>
</linearGradient>
<linearGradient id="paint4_linear_3140_11848" x1="23.4005" y1="8.99592" x2="22.5048" y2="12.3447" gradientUnits="userSpaceOnUse">
<stop stop-color="#F0B867"/>
<stop offset="1" stop-color="#C2C368"/>
</linearGradient>
<linearGradient id="paint5_linear_3140_11848" x1="11.1458" y1="23.6029" x2="10.0718" y2="30.5409" gradientUnits="userSpaceOnUse">
<stop stop-color="#F0B867"/>
<stop offset="1" stop-color="#C2C368"/>
</linearGradient>
<clipPath id="clip0_3140_11848">
<rect width="48" height="48" fill="white"/>
</clipPath>
</defs>
</svg>
