<svg width="24" height="25" viewBox="0 0 24 25" fill="none" xmlns="http://www.w3.org/2000/svg">
<path d="M4 8.5L3.29289 9.20711L2.58579 8.5L3.29289 7.79289L4 8.5ZM9 20.5C8.44772 20.5 8 20.0523 8 19.5C8 18.9477 8.44772 18.5 9 18.5L9 20.5ZM9 13.5L8.29289 14.2071L3.29289 9.20711L4 8.5L4.70711 7.79289L9.70711 12.7929L9 13.5ZM4 8.5L3.29289 7.79289L8.29289 2.79289L9 3.5L9.70711 4.20711L4.70711 9.20711L4 8.5ZM4 8.5L4 7.5L14.5 7.5L14.5 8.5L14.5 9.5L4 9.5L4 8.5ZM14.5 19.5L14.5 20.5L9 20.5L9 19.5L9 18.5L14.5 18.5L14.5 19.5ZM20 14L21 14C21 17.5898 18.0898 20.5 14.5 20.5L14.5 19.5L14.5 18.5C16.9853 18.5 19 16.4853 19 14L20 14ZM14.5 8.5L14.5 7.5C18.0899 7.5 21 10.4101 21 14L20 14L19 14C19 11.5147 16.9853 9.5 14.5 9.5L14.5 8.5Z" fill="#808088"/>
</svg>
