<svg width="18" height="18" viewBox="0 0 18 18" fill="none" xmlns="http://www.w3.org/2000/svg">
<path d="M2.25 6.25C2.25 4.04086 4.04086 2.25 6.25 2.25H11.75C13.9591 2.25 15.75 4.04086 15.75 6.25V11.75C15.75 13.9591 13.9591 15.75 11.75 15.75H6.25C4.04086 15.75 2.25 13.9591 2.25 11.75V6.25Z" stroke="currentColor" stroke-width="1.5"/>
<path d="M2.25 11.25L3.9305 9.5695C4.81282 8.68718 6.2788 8.81935 6.98908 9.84526L7.76644 10.9681C8.43112 11.9281 9.77349 12.117 10.6773 11.3776L11.7241 10.521C12.5194 9.87039 13.6783 9.92821 14.4048 10.6548L15.75 12" stroke="currentColor" stroke-width="1.5"/>
<circle cx="12" cy="6" r="1.5" fill="currentColor"/>
</svg>
