<svg width="19" height="18" viewBox="0 0 19 18" fill="none" xmlns="http://www.w3.org/2000/svg">
<path d="M7.625 11.882V10.618C7.625 9.87465 8.40731 9.39116 9.07221 9.72361L10.3361 10.3556C11.0732 10.7241 11.0732 11.7759 10.3361 12.1444L9.07221 12.7764C8.40731 13.1088 7.625 12.6253 7.625 11.882Z" fill="currentColor"/>
<path d="M9.5 2.25H6.25C5.14543 2.25 4.25 3.14543 4.25 4.25V13.75C4.25 14.8546 5.14543 15.75 6.25 15.75H12.75C13.8546 15.75 14.75 14.8546 14.75 13.75V7.5M9.5 2.25H10.5858C10.851 2.25 11.1054 2.35536 11.2929 2.54289L14.4571 5.70711C14.6446 5.89464 14.75 6.149 14.75 6.41421V7.5M9.5 2.25V5.5C9.5 6.60457 10.3954 7.5 11.5 7.5H14.75" stroke="currentColor" stroke-width="1.5"/>
</svg>
