<svg width="98" height="63" viewBox="0 0 98 63" fill="none" xmlns="http://www.w3.org/2000/svg">
<path d="M96.5994 17.494C97.4373 16.5752 97.3717 15.151 96.4528 14.3131L81.4789 0.658467C80.56 -0.179449 79.1359 -0.113822 78.298 0.80505C77.46 1.72392 77.5257 3.14808 78.4445 3.986L91.7547 16.1234L79.6172 29.4336C78.7793 30.3524 78.8449 31.7766 79.7638 32.6145C80.6827 33.4524 82.1068 33.3868 82.9447 32.4679L96.5994 17.494ZM1.49032 50.8789L0.329871 52.8085C13.9801 61.0177 24.3104 63.2969 32.8555 61.538C41.3713 59.7852 47.57 54.1205 53.1476 47.7978C64.5512 34.8707 73.7412 19.2076 95.0393 18.2261L94.9356 15.9769L94.832 13.7276C71.1217 14.8202 60.4213 32.745 49.7705 44.8187C44.3208 50.9965 38.9513 55.6856 31.9476 57.1272C24.9732 58.5627 15.8328 56.8769 2.65077 48.9493L1.49032 50.8789Z" fill="url(#paint0_linear_3366_10363)"/>
<defs>
<linearGradient id="paint0_linear_3366_10363" x1="50.6377" y1="11.1544" x2="45.1078" y2="61.9509" gradientUnits="userSpaceOnUse">
<stop offset="0.278846" stop-color="#E9EAEC"/>
<stop offset="1" stop-color="#848586" stop-opacity="0"/>
</linearGradient>
</defs>
</svg>
