<svg width="18" height="18" viewBox="0 0 18 18" fill="none" xmlns="http://www.w3.org/2000/svg">
<path d="M7.125 11.882V10.618C7.125 9.87465 7.90731 9.39116 8.57221 9.72361L9.83615 10.3556C10.5732 10.7241 10.5732 11.7759 9.83615 12.1444L8.57221 12.7764C7.90731 13.1088 7.125 12.6253 7.125 11.882Z" fill="currentColor"/>
<path d="M9 2.25H5.75C4.64543 2.25 3.75 3.14543 3.75 4.25V13.75C3.75 14.8546 4.64543 15.75 5.75 15.75H12.25C13.3546 15.75 14.25 14.8546 14.25 13.75V7.5M9 2.25H10.0858C10.351 2.25 10.6054 2.35536 10.7929 2.54289L13.9571 5.70711C14.1446 5.89464 14.25 6.149 14.25 6.41421V7.5M9 2.25V5.5C9 6.60457 9.89543 7.5 11 7.5H14.25" stroke="currentColor" stroke-width="1.5"/>
</svg>
